<svg width="11" height="14" viewBox="0 0 11 14" fill="none" xmlns="http://www.w3.org/2000/svg">
<path d="M10.52 6.14685L1.52197 0.647823C1.37041 0.555143 1.19689 0.504517 1.01927 0.501156C0.84165 0.497794 0.66634 0.541818 0.51138 0.628697C0.35642 0.715576 0.227406 0.842173 0.137611 0.995462C0.0478173 1.14875 0.000486368 1.3232 0.000488281 1.50085V12.4999C0.000632831 12.6775 0.048055 12.8518 0.137883 13.005C0.227711 13.1582 0.356707 13.2848 0.511617 13.3716C0.666527 13.4585 0.841765 13.5025 1.01933 13.4992C1.1969 13.4959 1.37038 13.4454 1.52197 13.3529L10.52 7.85388C10.6662 7.76449 10.787 7.63907 10.8707 7.48961C10.9545 7.34016 10.9985 7.1717 10.9985 7.00036C10.9985 6.82903 10.9545 6.66056 10.8707 6.51111C10.787 6.36166 10.6662 6.23623 10.52 6.14685Z" fill="#222222"/>
</svg>
